<mxfile host="app.diagrams.net" agent="Mozilla/5.0 (Windows NT 10.0; Win64; x64) AppleWebKit/537.36 (KHTML, like Gecko) Chrome/139.0.0.0 Safari/537.36" version="28.1.1">
  <diagram name="Page-1" id="BVFFTkGotnWz1ECZ5XN4">
    <mxGraphModel dx="1934" dy="972" grid="0" gridSize="10" guides="1" tooltips="1" connect="1" arrows="1" fold="1" page="0" pageScale="1" pageWidth="850" pageHeight="1100" background="#FFFFFF" math="0" shadow="0">
      <root>
        <mxCell id="0" />
        <mxCell id="1" parent="0" />
        <mxCell id="_nb2k66JtucjqHiSEeKR-1" value="&lt;h1&gt;&lt;font style=&quot;font-size: 40px;&quot; face=&quot;Georgia&quot;&gt;Use case diagram&lt;/font&gt;&lt;/h1&gt;" style="text;html=1;align=center;verticalAlign=middle;resizable=0;points=[];autosize=1;strokeColor=#666666;fillColor=#f5f5f5;fontSize=16;fontColor=#333333;" vertex="1" parent="1">
          <mxGeometry x="-236" y="-296" width="376" height="103" as="geometry" />
        </mxCell>
        <mxCell id="_nb2k66JtucjqHiSEeKR-5" value="User" style="shape=umlActor;verticalLabelPosition=bottom;verticalAlign=top;html=1;outlineConnect=0;" vertex="1" parent="1">
          <mxGeometry x="-112" y="89" width="30" height="60" as="geometry" />
        </mxCell>
        <mxCell id="_nb2k66JtucjqHiSEeKR-12" value="&lt;font face=&quot;Georgia&quot;&gt;Registration&lt;/font&gt;" style="ellipse;whiteSpace=wrap;html=1;" vertex="1" parent="1">
          <mxGeometry x="9" y="214" width="84" height="43" as="geometry" />
        </mxCell>
        <mxCell id="_nb2k66JtucjqHiSEeKR-27" style="edgeStyle=none;curved=1;rounded=0;orthogonalLoop=1;jettySize=auto;html=1;entryX=0.222;entryY=0.081;entryDx=0;entryDy=0;fontSize=12;startSize=8;endSize=8;endArrow=none;endFill=0;entryPerimeter=0;" edge="1" parent="1" source="_nb2k66JtucjqHiSEeKR-5" target="_nb2k66JtucjqHiSEeKR-12">
          <mxGeometry relative="1" as="geometry">
            <mxPoint x="-109" y="131" as="sourcePoint" />
            <mxPoint x="-180" y="159" as="targetPoint" />
          </mxGeometry>
        </mxCell>
        <mxCell id="_nb2k66JtucjqHiSEeKR-30" value="&lt;font face=&quot;Georgia&quot;&gt;Search user~&lt;/font&gt;" style="ellipse;whiteSpace=wrap;html=1;" vertex="1" parent="1">
          <mxGeometry x="-237" y="124" width="81" height="43.5" as="geometry" />
        </mxCell>
        <mxCell id="_nb2k66JtucjqHiSEeKR-31" value="&lt;font face=&quot;Georgia&quot;&gt;Recomendation system&lt;/font&gt;" style="ellipse;whiteSpace=wrap;html=1;" vertex="1" parent="1">
          <mxGeometry x="-410" y="124" width="99.79" height="47" as="geometry" />
        </mxCell>
        <mxCell id="_nb2k66JtucjqHiSEeKR-32" style="edgeStyle=none;curved=1;rounded=0;orthogonalLoop=1;jettySize=auto;html=1;fontSize=12;startSize=8;endSize=8;endArrow=none;endFill=0;exitX=0.988;exitY=0.359;exitDx=0;exitDy=0;exitPerimeter=0;" edge="1" parent="1" source="_nb2k66JtucjqHiSEeKR-30" target="_nb2k66JtucjqHiSEeKR-5">
          <mxGeometry relative="1" as="geometry">
            <mxPoint x="20" y="132" as="sourcePoint" />
            <mxPoint x="-51" y="155" as="targetPoint" />
          </mxGeometry>
        </mxCell>
        <mxCell id="_nb2k66JtucjqHiSEeKR-33" value="&amp;lt;&amp;lt;include&amp;gt;&amp;gt;" style="html=1;verticalAlign=bottom;endArrow=open;dashed=1;endSize=8;curved=0;rounded=0;fontSize=12;entryX=-0.005;entryY=0.579;entryDx=0;entryDy=0;entryPerimeter=0;" edge="1" parent="1" source="_nb2k66JtucjqHiSEeKR-31" target="_nb2k66JtucjqHiSEeKR-30">
          <mxGeometry x="0.0511" y="2" relative="1" as="geometry">
            <mxPoint x="115.21" y="191" as="sourcePoint" />
            <mxPoint x="35.21" y="191" as="targetPoint" />
            <mxPoint as="offset" />
          </mxGeometry>
        </mxCell>
        <mxCell id="_nb2k66JtucjqHiSEeKR-37" value="&lt;font style=&quot;font-size: 10px;&quot;&gt;user~&lt;/font&gt;&lt;div&gt;&lt;font style=&quot;font-size: 10px;&quot;&gt;means another user&lt;/font&gt;&lt;/div&gt;" style="whiteSpace=wrap;html=1;strokeWidth=1;dashed=1;" vertex="1" parent="1">
          <mxGeometry x="-223" y="198" width="53" height="57" as="geometry" />
        </mxCell>
        <mxCell id="_nb2k66JtucjqHiSEeKR-39" style="edgeStyle=none;curved=1;rounded=0;orthogonalLoop=1;jettySize=auto;html=1;fontSize=12;startSize=8;endSize=8;endArrow=none;endFill=0;exitX=0.5;exitY=0;exitDx=0;exitDy=0;entryX=0.5;entryY=1;entryDx=0;entryDy=0;dashed=1;" edge="1" parent="1" source="_nb2k66JtucjqHiSEeKR-37" target="_nb2k66JtucjqHiSEeKR-30">
          <mxGeometry relative="1" as="geometry">
            <mxPoint x="111.21" y="177" as="sourcePoint" />
            <mxPoint x="30.21" y="177" as="targetPoint" />
          </mxGeometry>
        </mxCell>
        <mxCell id="_nb2k66JtucjqHiSEeKR-41" value="&lt;font face=&quot;Georgia&quot;&gt;Open marketplace&lt;/font&gt;" style="ellipse;whiteSpace=wrap;html=1;" vertex="1" parent="1">
          <mxGeometry x="272" y="19" width="86.5" height="48" as="geometry" />
        </mxCell>
        <mxCell id="_nb2k66JtucjqHiSEeKR-43" value="&lt;font face=&quot;Georgia&quot;&gt;Make CatLink with user~&lt;/font&gt;" style="ellipse;whiteSpace=wrap;html=1;" vertex="1" parent="1">
          <mxGeometry x="3" y="-51.75" width="96" height="54.5" as="geometry" />
        </mxCell>
        <mxCell id="_nb2k66JtucjqHiSEeKR-46" style="edgeStyle=none;curved=1;rounded=0;orthogonalLoop=1;jettySize=auto;html=1;entryX=0;entryY=1;entryDx=0;entryDy=0;fontSize=12;startSize=8;endSize=8;endArrow=none;endFill=0;" edge="1" parent="1" source="_nb2k66JtucjqHiSEeKR-5" target="_nb2k66JtucjqHiSEeKR-41">
          <mxGeometry relative="1" as="geometry">
            <mxPoint x="-52" y="107" as="sourcePoint" />
            <mxPoint x="-124" y="77" as="targetPoint" />
          </mxGeometry>
        </mxCell>
        <mxCell id="_nb2k66JtucjqHiSEeKR-48" style="edgeStyle=none;curved=1;rounded=0;orthogonalLoop=1;jettySize=auto;html=1;entryX=0.031;entryY=0.771;entryDx=0;entryDy=0;fontSize=12;startSize=8;endSize=8;endArrow=none;endFill=0;entryPerimeter=0;" edge="1" parent="1" source="_nb2k66JtucjqHiSEeKR-5" target="_nb2k66JtucjqHiSEeKR-43">
          <mxGeometry relative="1" as="geometry">
            <mxPoint x="4" y="143" as="sourcePoint" />
            <mxPoint x="-40" y="66" as="targetPoint" />
          </mxGeometry>
        </mxCell>
        <mxCell id="_nb2k66JtucjqHiSEeKR-51" value="&lt;font face=&quot;Georgia&quot;&gt;Create love chat with user~&lt;/font&gt;" style="ellipse;whiteSpace=wrap;html=1;" vertex="1" parent="1">
          <mxGeometry x="-145" y="-51.75" width="96" height="54.5" as="geometry" />
        </mxCell>
        <mxCell id="_nb2k66JtucjqHiSEeKR-52" value="&lt;font face=&quot;Georgia&quot;&gt;Create friend chat with user~&lt;/font&gt;" style="ellipse;whiteSpace=wrap;html=1;" vertex="1" parent="1">
          <mxGeometry x="3" y="28" width="96" height="54.5" as="geometry" />
        </mxCell>
        <mxCell id="_nb2k66JtucjqHiSEeKR-53" style="edgeStyle=none;curved=1;rounded=0;orthogonalLoop=1;jettySize=auto;html=1;entryX=0.059;entryY=0.813;entryDx=0;entryDy=0;fontSize=12;startSize=8;endSize=8;endArrow=none;endFill=0;entryPerimeter=0;" edge="1" parent="1" source="_nb2k66JtucjqHiSEeKR-5" target="_nb2k66JtucjqHiSEeKR-52">
          <mxGeometry relative="1" as="geometry">
            <mxPoint x="80" y="35" as="sourcePoint" />
            <mxPoint x="158" y="-20" as="targetPoint" />
          </mxGeometry>
        </mxCell>
        <mxCell id="_nb2k66JtucjqHiSEeKR-54" style="edgeStyle=none;curved=1;rounded=0;orthogonalLoop=1;jettySize=auto;html=1;entryX=0.5;entryY=1;entryDx=0;entryDy=0;fontSize=12;startSize=8;endSize=8;endArrow=none;endFill=0;" edge="1" parent="1" source="_nb2k66JtucjqHiSEeKR-5" target="_nb2k66JtucjqHiSEeKR-51">
          <mxGeometry relative="1" as="geometry">
            <mxPoint x="80" y="51" as="sourcePoint" />
            <mxPoint x="171" y="11" as="targetPoint" />
          </mxGeometry>
        </mxCell>
        <mxCell id="_nb2k66JtucjqHiSEeKR-55" value="&amp;lt;&amp;lt;extend&amp;gt;&amp;gt;" style="html=1;verticalAlign=bottom;endArrow=open;dashed=1;endSize=8;curved=0;rounded=0;fontSize=12;entryX=1;entryY=0.5;entryDx=0;entryDy=0;exitX=0;exitY=0.5;exitDx=0;exitDy=0;" edge="1" parent="1" source="_nb2k66JtucjqHiSEeKR-43" target="_nb2k66JtucjqHiSEeKR-51">
          <mxGeometry x="-0.1325" y="-3" relative="1" as="geometry">
            <mxPoint x="159" y="128" as="sourcePoint" />
            <mxPoint x="99" y="99" as="targetPoint" />
            <mxPoint as="offset" />
          </mxGeometry>
        </mxCell>
        <mxCell id="_nb2k66JtucjqHiSEeKR-56" value="&amp;lt;&amp;lt;extend&amp;gt;&amp;gt;" style="html=1;verticalAlign=bottom;endArrow=open;dashed=1;endSize=8;curved=0;rounded=0;fontSize=12;entryX=0.5;entryY=0;entryDx=0;entryDy=0;exitX=0.5;exitY=1;exitDx=0;exitDy=0;" edge="1" parent="1" source="_nb2k66JtucjqHiSEeKR-43" target="_nb2k66JtucjqHiSEeKR-52">
          <mxGeometry x="0.0236" relative="1" as="geometry">
            <mxPoint x="211" y="25" as="sourcePoint" />
            <mxPoint x="151" y="-4" as="targetPoint" />
            <mxPoint as="offset" />
          </mxGeometry>
        </mxCell>
        <mxCell id="_nb2k66JtucjqHiSEeKR-63" value="&lt;font face=&quot;Georgia&quot;&gt;Add user~ to contacts&lt;/font&gt;" style="ellipse;whiteSpace=wrap;html=1;" vertex="1" parent="1">
          <mxGeometry x="-341" y="198" width="81" height="43.5" as="geometry" />
        </mxCell>
        <mxCell id="_nb2k66JtucjqHiSEeKR-65" value="&amp;lt;&amp;lt;extend&amp;gt;&amp;gt;" style="html=1;verticalAlign=bottom;endArrow=open;dashed=1;endSize=8;curved=0;rounded=0;fontSize=12;entryX=0.948;entryY=0.257;entryDx=0;entryDy=0;entryPerimeter=0;exitX=0.237;exitY=0.929;exitDx=0;exitDy=0;exitPerimeter=0;" edge="1" parent="1" source="_nb2k66JtucjqHiSEeKR-30" target="_nb2k66JtucjqHiSEeKR-63">
          <mxGeometry x="0.0918" y="3" relative="1" as="geometry">
            <mxPoint x="158" y="174" as="sourcePoint" />
            <mxPoint x="96" y="149" as="targetPoint" />
            <mxPoint as="offset" />
          </mxGeometry>
        </mxCell>
        <mxCell id="_nb2k66JtucjqHiSEeKR-66" value="&lt;font face=&quot;Georgia&quot;&gt;Open gallery pages&lt;/font&gt;" style="ellipse;whiteSpace=wrap;html=1;" vertex="1" parent="1">
          <mxGeometry x="-137.5" y="255" width="81" height="43.5" as="geometry" />
        </mxCell>
        <mxCell id="_nb2k66JtucjqHiSEeKR-67" style="edgeStyle=none;curved=1;rounded=0;orthogonalLoop=1;jettySize=auto;html=1;fontSize=12;startSize=8;endSize=8;endArrow=none;endFill=0;exitX=0.5;exitY=0;exitDx=0;exitDy=0;" edge="1" parent="1" source="_nb2k66JtucjqHiSEeKR-66" target="_nb2k66JtucjqHiSEeKR-5">
          <mxGeometry relative="1" as="geometry">
            <mxPoint x="-1" y="175" as="sourcePoint" />
            <mxPoint x="-78" y="129" as="targetPoint" />
          </mxGeometry>
        </mxCell>
        <mxCell id="_nb2k66JtucjqHiSEeKR-69" value="&lt;font face=&quot;Georgia&quot;&gt;Set up date&lt;/font&gt;" style="ellipse;whiteSpace=wrap;html=1;" vertex="1" parent="1">
          <mxGeometry x="40" y="360" width="81" height="43.5" as="geometry" />
        </mxCell>
        <mxCell id="_nb2k66JtucjqHiSEeKR-71" value="&amp;lt;&amp;lt;include&amp;gt;&amp;gt;" style="html=1;verticalAlign=bottom;endArrow=open;dashed=1;endSize=8;curved=0;rounded=0;fontSize=12;exitX=0;exitY=0;exitDx=0;exitDy=0;entryX=0.914;entryY=0.752;entryDx=0;entryDy=0;entryPerimeter=0;" edge="1" parent="1" source="_nb2k66JtucjqHiSEeKR-69" target="_nb2k66JtucjqHiSEeKR-74">
          <mxGeometry x="-0.7584" y="-10" relative="1" as="geometry">
            <mxPoint x="25" y="342" as="sourcePoint" />
            <mxPoint x="-50" y="360" as="targetPoint" />
            <mxPoint as="offset" />
          </mxGeometry>
        </mxCell>
        <mxCell id="_nb2k66JtucjqHiSEeKR-72" value="&lt;font face=&quot;Georgia&quot;&gt;Set up special day&lt;/font&gt;" style="ellipse;whiteSpace=wrap;html=1;" vertex="1" parent="1">
          <mxGeometry x="-52" y="394" width="81" height="43.5" as="geometry" />
        </mxCell>
        <mxCell id="_nb2k66JtucjqHiSEeKR-73" value="&amp;lt;&amp;lt;extend&amp;gt;&amp;gt;" style="html=1;verticalAlign=bottom;endArrow=open;dashed=1;endSize=8;curved=0;rounded=0;fontSize=12;entryX=0.5;entryY=1;entryDx=0;entryDy=0;exitX=0.5;exitY=0;exitDx=0;exitDy=0;" edge="1" parent="1" source="_nb2k66JtucjqHiSEeKR-72" target="_nb2k66JtucjqHiSEeKR-74">
          <mxGeometry x="-0.5663" relative="1" as="geometry">
            <mxPoint x="110" y="377.5" as="sourcePoint" />
            <mxPoint x="-82" y="377.0000000000002" as="targetPoint" />
            <mxPoint as="offset" />
          </mxGeometry>
        </mxCell>
        <mxCell id="_nb2k66JtucjqHiSEeKR-74" value="&lt;font face=&quot;Georgia&quot;&gt;Upload &quot;Memory&quot;&lt;/font&gt;" style="ellipse;whiteSpace=wrap;html=1;" vertex="1" parent="1">
          <mxGeometry x="-52" y="298.5" width="81" height="43.5" as="geometry" />
        </mxCell>
        <mxCell id="_nb2k66JtucjqHiSEeKR-75" style="edgeStyle=none;curved=1;rounded=0;orthogonalLoop=1;jettySize=auto;html=1;fontSize=12;startSize=8;endSize=8;endArrow=none;endFill=0;exitX=0.172;exitY=0.074;exitDx=0;exitDy=0;entryX=0.802;entryY=0.909;entryDx=0;entryDy=0;entryPerimeter=0;exitPerimeter=0;" edge="1" parent="1" source="_nb2k66JtucjqHiSEeKR-74" target="_nb2k66JtucjqHiSEeKR-66">
          <mxGeometry relative="1" as="geometry">
            <mxPoint x="-92" y="364" as="sourcePoint" />
            <mxPoint x="-92" y="254" as="targetPoint" />
          </mxGeometry>
        </mxCell>
        <mxCell id="_nb2k66JtucjqHiSEeKR-76" style="edgeStyle=none;curved=1;rounded=0;orthogonalLoop=1;jettySize=auto;html=1;fontSize=12;startSize=8;endSize=8;endArrow=none;endFill=0;exitX=0.46;exitY=0.02;exitDx=0;exitDy=0;exitPerimeter=0;" edge="1" parent="1" source="_nb2k66JtucjqHiSEeKR-74" target="_nb2k66JtucjqHiSEeKR-5">
          <mxGeometry relative="1" as="geometry">
            <mxPoint x="-57" y="310" as="sourcePoint" />
            <mxPoint x="-30" y="204" as="targetPoint" />
          </mxGeometry>
        </mxCell>
        <mxCell id="_nb2k66JtucjqHiSEeKR-77" value="&lt;font face=&quot;Georgia&quot;&gt;View &quot;Memory&quot;&lt;/font&gt;" style="ellipse;whiteSpace=wrap;html=1;" vertex="1" parent="1">
          <mxGeometry x="-223" y="298.5" width="81" height="43.5" as="geometry" />
        </mxCell>
        <mxCell id="_nb2k66JtucjqHiSEeKR-78" style="edgeStyle=none;curved=1;rounded=0;orthogonalLoop=1;jettySize=auto;html=1;fontSize=12;startSize=8;endSize=8;endArrow=none;endFill=0;exitX=0.718;exitY=0.05;exitDx=0;exitDy=0;entryX=0;entryY=1;entryDx=0;entryDy=0;exitPerimeter=0;" edge="1" parent="1" source="_nb2k66JtucjqHiSEeKR-77" target="_nb2k66JtucjqHiSEeKR-66">
          <mxGeometry relative="1" as="geometry">
            <mxPoint x="-98" y="310" as="sourcePoint" />
            <mxPoint x="-119" y="295" as="targetPoint" />
          </mxGeometry>
        </mxCell>
        <mxCell id="_nb2k66JtucjqHiSEeKR-79" value="&lt;font face=&quot;Georgia&quot;&gt;Update data&lt;/font&gt;" style="ellipse;whiteSpace=wrap;html=1;" vertex="1" parent="1">
          <mxGeometry x="-304" y="360" width="81" height="43.5" as="geometry" />
        </mxCell>
        <mxCell id="_nb2k66JtucjqHiSEeKR-80" style="edgeStyle=none;curved=1;rounded=0;orthogonalLoop=1;jettySize=auto;html=1;fontSize=12;startSize=8;endSize=8;endArrow=none;endFill=0;exitX=0.553;exitY=0.029;exitDx=0;exitDy=0;exitPerimeter=0;" edge="1" parent="1" source="_nb2k66JtucjqHiSEeKR-77" target="_nb2k66JtucjqHiSEeKR-5">
          <mxGeometry relative="1" as="geometry">
            <mxPoint x="-19" y="322" as="sourcePoint" />
            <mxPoint x="-72" y="172" as="targetPoint" />
          </mxGeometry>
        </mxCell>
        <mxCell id="_nb2k66JtucjqHiSEeKR-81" value="&amp;lt;&amp;lt;extend&amp;gt;&amp;gt;" style="html=1;verticalAlign=bottom;endArrow=open;dashed=1;endSize=8;curved=0;rounded=0;fontSize=12;entryX=0;entryY=1;entryDx=0;entryDy=0;exitX=0.654;exitY=0.035;exitDx=0;exitDy=0;exitPerimeter=0;" edge="1" parent="1" source="_nb2k66JtucjqHiSEeKR-79" target="_nb2k66JtucjqHiSEeKR-77">
          <mxGeometry x="-0.5522" relative="1" as="geometry">
            <mxPoint x="-173" y="418" as="sourcePoint" />
            <mxPoint x="-173" y="366" as="targetPoint" />
            <mxPoint as="offset" />
          </mxGeometry>
        </mxCell>
        <mxCell id="_nb2k66JtucjqHiSEeKR-82" value="&lt;font face=&quot;Georgia&quot;&gt;Input data&lt;/font&gt;" style="ellipse;whiteSpace=wrap;html=1;" vertex="1" parent="1">
          <mxGeometry x="81" y="298.5" width="81" height="43.5" as="geometry" />
        </mxCell>
        <mxCell id="_nb2k66JtucjqHiSEeKR-83" value="&amp;lt;&amp;lt;include&amp;gt;&amp;gt;" style="html=1;verticalAlign=bottom;endArrow=open;dashed=1;endSize=8;curved=0;rounded=0;fontSize=12;exitX=0;exitY=0.5;exitDx=0;exitDy=0;entryX=1;entryY=0.5;entryDx=0;entryDy=0;" edge="1" parent="1" source="_nb2k66JtucjqHiSEeKR-82" target="_nb2k66JtucjqHiSEeKR-74">
          <mxGeometry x="-0.0791" y="-2" relative="1" as="geometry">
            <mxPoint x="78" y="365" as="sourcePoint" />
            <mxPoint x="38" y="335" as="targetPoint" />
            <mxPoint as="offset" />
          </mxGeometry>
        </mxCell>
        <mxCell id="_nb2k66JtucjqHiSEeKR-86" value="&lt;font face=&quot;Georgia&quot;&gt;Delete &quot;Memory&quot;&lt;/font&gt;" style="ellipse;whiteSpace=wrap;html=1;" vertex="1" parent="1">
          <mxGeometry x="-223" y="394" width="81" height="43.5" as="geometry" />
        </mxCell>
        <mxCell id="_nb2k66JtucjqHiSEeKR-87" value="&lt;font style=&quot;font-size: 9px;&quot;&gt;&quot;Memory&quot;&lt;/font&gt;&lt;div&gt;&lt;font style=&quot;font-size: 9px;&quot;&gt;image and information about relation day between users&lt;/font&gt;&lt;/div&gt;" style="whiteSpace=wrap;html=1;strokeWidth=1;dashed=1;" vertex="1" parent="1">
          <mxGeometry x="-147.5" y="334" width="101" height="56.5" as="geometry" />
        </mxCell>
        <mxCell id="_nb2k66JtucjqHiSEeKR-88" value="&amp;lt;&amp;lt;extend&amp;gt;&amp;gt;" style="html=1;verticalAlign=bottom;endArrow=open;dashed=1;endSize=8;curved=0;rounded=0;fontSize=12;entryX=0.5;entryY=1;entryDx=0;entryDy=0;" edge="1" parent="1" source="_nb2k66JtucjqHiSEeKR-86" target="_nb2k66JtucjqHiSEeKR-77">
          <mxGeometry x="-0.5663" relative="1" as="geometry">
            <mxPoint x="-141" y="390" as="sourcePoint" />
            <mxPoint x="-114" y="362" as="targetPoint" />
            <mxPoint as="offset" />
          </mxGeometry>
        </mxCell>
        <mxCell id="_nb2k66JtucjqHiSEeKR-90" value="&lt;font face=&quot;Georgia&quot;&gt;Modify profile&lt;/font&gt;" style="ellipse;whiteSpace=wrap;html=1;" vertex="1" parent="1">
          <mxGeometry x="-231.5" y="57" width="81" height="43.5" as="geometry" />
        </mxCell>
        <mxCell id="_nb2k66JtucjqHiSEeKR-91" value="&lt;font face=&quot;Georgia&quot;&gt;CRUD actions about profile data&lt;/font&gt;" style="ellipse;whiteSpace=wrap;html=1;" vertex="1" parent="1">
          <mxGeometry x="-382" y="-23" width="106" height="51" as="geometry" />
        </mxCell>
        <mxCell id="_nb2k66JtucjqHiSEeKR-92" style="edgeStyle=none;curved=1;rounded=0;orthogonalLoop=1;jettySize=auto;html=1;entryX=0.988;entryY=0.693;entryDx=0;entryDy=0;fontSize=12;startSize=8;endSize=8;endArrow=none;endFill=0;entryPerimeter=0;" edge="1" parent="1" source="_nb2k66JtucjqHiSEeKR-5" target="_nb2k66JtucjqHiSEeKR-90">
          <mxGeometry relative="1" as="geometry">
            <mxPoint x="-58" y="137" as="sourcePoint" />
            <mxPoint x="-16" y="46" as="targetPoint" />
          </mxGeometry>
        </mxCell>
        <mxCell id="_nb2k66JtucjqHiSEeKR-93" value="&amp;lt;&amp;lt;extend&amp;gt;&amp;gt;" style="html=1;verticalAlign=bottom;endArrow=open;dashed=1;endSize=8;curved=0;rounded=0;fontSize=12;entryX=0;entryY=0;entryDx=0;entryDy=0;" edge="1" parent="1" source="_nb2k66JtucjqHiSEeKR-91" target="_nb2k66JtucjqHiSEeKR-90">
          <mxGeometry x="0.1864" y="-3" relative="1" as="geometry">
            <mxPoint x="37" y="170" as="sourcePoint" />
            <mxPoint x="89" y="147" as="targetPoint" />
            <mxPoint as="offset" />
          </mxGeometry>
        </mxCell>
        <mxCell id="_nb2k66JtucjqHiSEeKR-96" value="&lt;font face=&quot;Georgia&quot;&gt;Modify interests&lt;/font&gt;" style="ellipse;whiteSpace=wrap;html=1;" vertex="1" parent="1">
          <mxGeometry x="-410" y="53.25" width="106" height="51" as="geometry" />
        </mxCell>
        <mxCell id="_nb2k66JtucjqHiSEeKR-97" value="&amp;lt;&amp;lt;extend&amp;gt;&amp;gt;" style="html=1;verticalAlign=bottom;endArrow=open;dashed=1;endSize=8;curved=0;rounded=0;fontSize=12;exitX=1;exitY=0.5;exitDx=0;exitDy=0;" edge="1" parent="1" source="_nb2k66JtucjqHiSEeKR-96" target="_nb2k66JtucjqHiSEeKR-90">
          <mxGeometry x="-0.0345" y="2" relative="1" as="geometry">
            <mxPoint x="-240" y="69" as="sourcePoint" />
            <mxPoint x="-191" y="97" as="targetPoint" />
            <mxPoint as="offset" />
          </mxGeometry>
        </mxCell>
        <mxCell id="_nb2k66JtucjqHiSEeKR-98" value="&amp;lt;&amp;lt;include&amp;gt;&amp;gt;" style="html=1;verticalAlign=bottom;endArrow=open;dashed=1;endSize=8;curved=0;rounded=0;fontSize=12;entryX=0.816;entryY=0.077;entryDx=0;entryDy=0;entryPerimeter=0;exitX=0.075;exitY=0.814;exitDx=0;exitDy=0;exitPerimeter=0;" edge="1" parent="1" source="_nb2k66JtucjqHiSEeKR-90" target="_nb2k66JtucjqHiSEeKR-31">
          <mxGeometry x="0.0004" y="3" relative="1" as="geometry">
            <mxPoint x="-232" y="114" as="sourcePoint" />
            <mxPoint x="-159" y="115" as="targetPoint" />
            <mxPoint as="offset" />
          </mxGeometry>
        </mxCell>
        <mxCell id="_nb2k66JtucjqHiSEeKR-100" value="&lt;h1&gt;&lt;font face=&quot;Georgia&quot;&gt;&lt;span style=&quot;font-size: 40px;&quot;&gt;Class diagram&lt;/span&gt;&lt;/font&gt;&lt;/h1&gt;" style="text;html=1;align=center;verticalAlign=middle;resizable=0;points=[];autosize=1;strokeColor=#666666;fillColor=#f5f5f5;fontSize=16;fontColor=#333333;" vertex="1" parent="1">
          <mxGeometry x="1201" y="-288" width="308" height="103" as="geometry" />
        </mxCell>
        <mxCell id="_nb2k66JtucjqHiSEeKR-102" value="Classname" style="swimlane;fontStyle=0;childLayout=stackLayout;horizontal=1;startSize=26;fillColor=none;horizontalStack=0;resizeParent=1;resizeParentMax=0;resizeLast=0;collapsible=1;marginBottom=0;whiteSpace=wrap;html=1;" vertex="1" parent="1">
          <mxGeometry x="1090" y="-113" width="140" height="104" as="geometry" />
        </mxCell>
        <mxCell id="_nb2k66JtucjqHiSEeKR-103" value="+ field: type" style="text;strokeColor=none;fillColor=none;align=left;verticalAlign=top;spacingLeft=4;spacingRight=4;overflow=hidden;rotatable=0;points=[[0,0.5],[1,0.5]];portConstraint=eastwest;whiteSpace=wrap;html=1;" vertex="1" parent="_nb2k66JtucjqHiSEeKR-102">
          <mxGeometry y="26" width="140" height="26" as="geometry" />
        </mxCell>
        <mxCell id="_nb2k66JtucjqHiSEeKR-104" value="+ field: type" style="text;strokeColor=none;fillColor=none;align=left;verticalAlign=top;spacingLeft=4;spacingRight=4;overflow=hidden;rotatable=0;points=[[0,0.5],[1,0.5]];portConstraint=eastwest;whiteSpace=wrap;html=1;" vertex="1" parent="_nb2k66JtucjqHiSEeKR-102">
          <mxGeometry y="52" width="140" height="26" as="geometry" />
        </mxCell>
        <mxCell id="_nb2k66JtucjqHiSEeKR-105" value="+ field: type" style="text;strokeColor=none;fillColor=none;align=left;verticalAlign=top;spacingLeft=4;spacingRight=4;overflow=hidden;rotatable=0;points=[[0,0.5],[1,0.5]];portConstraint=eastwest;whiteSpace=wrap;html=1;" vertex="1" parent="_nb2k66JtucjqHiSEeKR-102">
          <mxGeometry y="78" width="140" height="26" as="geometry" />
        </mxCell>
        <mxCell id="_nb2k66JtucjqHiSEeKR-106" value="Classname" style="swimlane;fontStyle=0;childLayout=stackLayout;horizontal=1;startSize=26;fillColor=none;horizontalStack=0;resizeParent=1;resizeParentMax=0;resizeLast=0;collapsible=1;marginBottom=0;whiteSpace=wrap;html=1;" vertex="1" parent="1">
          <mxGeometry x="1518" y="-130" width="140" height="104" as="geometry" />
        </mxCell>
        <mxCell id="_nb2k66JtucjqHiSEeKR-107" value="+ field: type" style="text;strokeColor=none;fillColor=none;align=left;verticalAlign=top;spacingLeft=4;spacingRight=4;overflow=hidden;rotatable=0;points=[[0,0.5],[1,0.5]];portConstraint=eastwest;whiteSpace=wrap;html=1;" vertex="1" parent="_nb2k66JtucjqHiSEeKR-106">
          <mxGeometry y="26" width="140" height="26" as="geometry" />
        </mxCell>
        <mxCell id="_nb2k66JtucjqHiSEeKR-108" value="+ field: type" style="text;strokeColor=none;fillColor=none;align=left;verticalAlign=top;spacingLeft=4;spacingRight=4;overflow=hidden;rotatable=0;points=[[0,0.5],[1,0.5]];portConstraint=eastwest;whiteSpace=wrap;html=1;" vertex="1" parent="_nb2k66JtucjqHiSEeKR-106">
          <mxGeometry y="52" width="140" height="26" as="geometry" />
        </mxCell>
        <mxCell id="_nb2k66JtucjqHiSEeKR-109" value="+ field: type" style="text;strokeColor=none;fillColor=none;align=left;verticalAlign=top;spacingLeft=4;spacingRight=4;overflow=hidden;rotatable=0;points=[[0,0.5],[1,0.5]];portConstraint=eastwest;whiteSpace=wrap;html=1;" vertex="1" parent="_nb2k66JtucjqHiSEeKR-106">
          <mxGeometry y="78" width="140" height="26" as="geometry" />
        </mxCell>
        <mxCell id="_nb2k66JtucjqHiSEeKR-110" value="Classname" style="swimlane;fontStyle=0;childLayout=stackLayout;horizontal=1;startSize=26;fillColor=none;horizontalStack=0;resizeParent=1;resizeParentMax=0;resizeLast=0;collapsible=1;marginBottom=0;whiteSpace=wrap;html=1;" vertex="1" parent="1">
          <mxGeometry x="1461" y="82" width="140" height="104" as="geometry" />
        </mxCell>
        <mxCell id="_nb2k66JtucjqHiSEeKR-111" value="+ field: type" style="text;strokeColor=none;fillColor=none;align=left;verticalAlign=top;spacingLeft=4;spacingRight=4;overflow=hidden;rotatable=0;points=[[0,0.5],[1,0.5]];portConstraint=eastwest;whiteSpace=wrap;html=1;" vertex="1" parent="_nb2k66JtucjqHiSEeKR-110">
          <mxGeometry y="26" width="140" height="26" as="geometry" />
        </mxCell>
        <mxCell id="_nb2k66JtucjqHiSEeKR-112" value="+ field: type" style="text;strokeColor=none;fillColor=none;align=left;verticalAlign=top;spacingLeft=4;spacingRight=4;overflow=hidden;rotatable=0;points=[[0,0.5],[1,0.5]];portConstraint=eastwest;whiteSpace=wrap;html=1;" vertex="1" parent="_nb2k66JtucjqHiSEeKR-110">
          <mxGeometry y="52" width="140" height="26" as="geometry" />
        </mxCell>
        <mxCell id="_nb2k66JtucjqHiSEeKR-113" value="+ field: type" style="text;strokeColor=none;fillColor=none;align=left;verticalAlign=top;spacingLeft=4;spacingRight=4;overflow=hidden;rotatable=0;points=[[0,0.5],[1,0.5]];portConstraint=eastwest;whiteSpace=wrap;html=1;" vertex="1" parent="_nb2k66JtucjqHiSEeKR-110">
          <mxGeometry y="78" width="140" height="26" as="geometry" />
        </mxCell>
        <mxCell id="_nb2k66JtucjqHiSEeKR-114" value="Classname" style="swimlane;fontStyle=0;childLayout=stackLayout;horizontal=1;startSize=26;fillColor=none;horizontalStack=0;resizeParent=1;resizeParentMax=0;resizeLast=0;collapsible=1;marginBottom=0;whiteSpace=wrap;html=1;" vertex="1" parent="1">
          <mxGeometry x="1187" y="130" width="140" height="104" as="geometry" />
        </mxCell>
        <mxCell id="_nb2k66JtucjqHiSEeKR-115" value="+ field: type" style="text;strokeColor=none;fillColor=none;align=left;verticalAlign=top;spacingLeft=4;spacingRight=4;overflow=hidden;rotatable=0;points=[[0,0.5],[1,0.5]];portConstraint=eastwest;whiteSpace=wrap;html=1;" vertex="1" parent="_nb2k66JtucjqHiSEeKR-114">
          <mxGeometry y="26" width="140" height="26" as="geometry" />
        </mxCell>
        <mxCell id="_nb2k66JtucjqHiSEeKR-116" value="+ field: type" style="text;strokeColor=none;fillColor=none;align=left;verticalAlign=top;spacingLeft=4;spacingRight=4;overflow=hidden;rotatable=0;points=[[0,0.5],[1,0.5]];portConstraint=eastwest;whiteSpace=wrap;html=1;" vertex="1" parent="_nb2k66JtucjqHiSEeKR-114">
          <mxGeometry y="52" width="140" height="26" as="geometry" />
        </mxCell>
        <mxCell id="_nb2k66JtucjqHiSEeKR-117" value="+ field: type" style="text;strokeColor=none;fillColor=none;align=left;verticalAlign=top;spacingLeft=4;spacingRight=4;overflow=hidden;rotatable=0;points=[[0,0.5],[1,0.5]];portConstraint=eastwest;whiteSpace=wrap;html=1;" vertex="1" parent="_nb2k66JtucjqHiSEeKR-114">
          <mxGeometry y="78" width="140" height="26" as="geometry" />
        </mxCell>
        <mxCell id="_nb2k66JtucjqHiSEeKR-118" value="&lt;font face=&quot;Georgia&quot;&gt;Participate in &quot;Period events&quot;&lt;/font&gt;" style="ellipse;whiteSpace=wrap;html=1;" vertex="1" parent="1">
          <mxGeometry x="239" y="228.75" width="86.5" height="48" as="geometry" />
        </mxCell>
        <mxCell id="_nb2k66JtucjqHiSEeKR-119" value="&lt;div style=&quot;&quot;&gt;&lt;font style=&quot;font-size: 10px;&quot;&gt;&quot;Period events&quot;&lt;/font&gt;&lt;/div&gt;&lt;div style=&quot;&quot;&gt;&lt;span style=&quot;background-color: transparent; color: light-dark(rgb(0, 0, 0), rgb(255, 255, 255));&quot;&gt;&lt;font style=&quot;font-size: 10px;&quot;&gt;Every &quot;CatLinked&quot; users can participate in period events (from date to date - day, wekend, month...) and earn coins/special gifts/ profile|user|gallery features&lt;/font&gt;&lt;/span&gt;&lt;/div&gt;" style="whiteSpace=wrap;html=1;strokeWidth=1;dashed=1;align=center;" vertex="1" parent="1">
          <mxGeometry x="506" y="158" width="124" height="112" as="geometry" />
        </mxCell>
        <mxCell id="_nb2k66JtucjqHiSEeKR-120" style="edgeStyle=none;curved=1;rounded=0;orthogonalLoop=1;jettySize=auto;html=1;entryX=0.028;entryY=0.33;entryDx=0;entryDy=0;fontSize=12;startSize=8;endSize=8;endArrow=none;endFill=0;entryPerimeter=0;" edge="1" parent="1" source="_nb2k66JtucjqHiSEeKR-5" target="_nb2k66JtucjqHiSEeKR-118">
          <mxGeometry relative="1" as="geometry">
            <mxPoint x="-63" y="118" as="sourcePoint" />
            <mxPoint x="91" y="118" as="targetPoint" />
          </mxGeometry>
        </mxCell>
        <mxCell id="_nb2k66JtucjqHiSEeKR-121" value="&lt;font face=&quot;Georgia&quot;&gt;Paly mini games&lt;/font&gt;" style="ellipse;whiteSpace=wrap;html=1;" vertex="1" parent="1">
          <mxGeometry x="241.75" y="146" width="81" height="43.5" as="geometry" />
        </mxCell>
        <mxCell id="_nb2k66JtucjqHiSEeKR-122" value="&amp;lt;&amp;lt;extend&amp;gt;&amp;gt;" style="html=1;verticalAlign=bottom;endArrow=open;dashed=1;endSize=8;curved=0;rounded=0;fontSize=12;entryX=0.5;entryY=0;entryDx=0;entryDy=0;exitX=0.5;exitY=1;exitDx=0;exitDy=0;" edge="1" parent="1" source="_nb2k66JtucjqHiSEeKR-121" target="_nb2k66JtucjqHiSEeKR-118">
          <mxGeometry x="0.0479" y="4" relative="1" as="geometry">
            <mxPoint x="161.25" y="280.75" as="sourcePoint" />
            <mxPoint x="161.25" y="228.75" as="targetPoint" />
            <mxPoint as="offset" />
          </mxGeometry>
        </mxCell>
        <mxCell id="_nb2k66JtucjqHiSEeKR-123" value="&lt;font face=&quot;Georgia&quot;&gt;Earn Love/Friend Coins&lt;/font&gt;" style="ellipse;whiteSpace=wrap;html=1;" vertex="1" parent="1">
          <mxGeometry x="362" y="145.75" width="86" height="43.75" as="geometry" />
        </mxCell>
        <mxCell id="_nb2k66JtucjqHiSEeKR-124" value="&lt;font face=&quot;Georgia&quot;&gt;Complete tasks&lt;/font&gt;" style="ellipse;whiteSpace=wrap;html=1;" vertex="1" parent="1">
          <mxGeometry x="388" y="217" width="86.5" height="48" as="geometry" />
        </mxCell>
        <mxCell id="_nb2k66JtucjqHiSEeKR-125" value="&amp;lt;&amp;lt;include&amp;gt;&amp;gt;" style="html=1;verticalAlign=bottom;endArrow=open;dashed=1;endSize=8;curved=0;rounded=0;fontSize=12;exitX=0.228;exitY=0.847;exitDx=0;exitDy=0;entryX=0.916;entryY=0.125;entryDx=0;entryDy=0;entryPerimeter=0;exitPerimeter=0;" edge="1" parent="1" source="_nb2k66JtucjqHiSEeKR-123" target="_nb2k66JtucjqHiSEeKR-118">
          <mxGeometry x="0.1121" y="6" relative="1" as="geometry">
            <mxPoint x="141.25" y="400.75" as="sourcePoint" />
            <mxPoint x="325.25" y="252.75" as="targetPoint" />
            <mxPoint as="offset" />
          </mxGeometry>
        </mxCell>
        <mxCell id="_nb2k66JtucjqHiSEeKR-127" value="&amp;lt;&amp;lt;extend&amp;gt;&amp;gt;" style="html=1;verticalAlign=bottom;endArrow=open;dashed=1;endSize=8;curved=0;rounded=0;fontSize=12;entryX=1;entryY=0.5;entryDx=0;entryDy=0;exitX=0;exitY=0.5;exitDx=0;exitDy=0;" edge="1" parent="1" source="_nb2k66JtucjqHiSEeKR-124" target="_nb2k66JtucjqHiSEeKR-118">
          <mxGeometry x="-0.0824" relative="1" as="geometry">
            <mxPoint x="363.25" y="227.75" as="sourcePoint" />
            <mxPoint x="363.25" y="266.75" as="targetPoint" />
            <mxPoint as="offset" />
          </mxGeometry>
        </mxCell>
        <mxCell id="_nb2k66JtucjqHiSEeKR-128" value="&lt;font face=&quot;Georgia&quot;&gt;Get achievements&lt;/font&gt;" style="ellipse;whiteSpace=wrap;html=1;" vertex="1" parent="1">
          <mxGeometry x="173" y="321" width="86.5" height="48" as="geometry" />
        </mxCell>
        <mxCell id="_nb2k66JtucjqHiSEeKR-129" value="&amp;lt;&amp;lt;extend&amp;gt;&amp;gt;" style="html=1;verticalAlign=bottom;endArrow=open;dashed=1;endSize=8;curved=0;rounded=0;fontSize=12;entryX=0.167;entryY=0.924;entryDx=0;entryDy=0;exitX=0.5;exitY=0;exitDx=0;exitDy=0;entryPerimeter=0;" edge="1" parent="1" source="_nb2k66JtucjqHiSEeKR-128" target="_nb2k66JtucjqHiSEeKR-118">
          <mxGeometry x="-0.4667" relative="1" as="geometry">
            <mxPoint x="343" y="279" as="sourcePoint" />
            <mxPoint x="343" y="318" as="targetPoint" />
            <mxPoint as="offset" />
          </mxGeometry>
        </mxCell>
        <mxCell id="_nb2k66JtucjqHiSEeKR-130" value="&lt;font face=&quot;Georgia&quot;&gt;Get special&amp;nbsp;&lt;/font&gt;&lt;div&gt;&lt;span style=&quot;font-family: Georgia;&quot;&gt;user/profile/gallery&lt;/span&gt;&lt;div&gt;&lt;font face=&quot;Georgia&quot;&gt;&amp;nbsp;feauters&lt;/font&gt;&lt;/div&gt;&lt;/div&gt;" style="ellipse;whiteSpace=wrap;html=1;" vertex="1" parent="1">
          <mxGeometry x="366" y="283" width="111.5" height="48" as="geometry" />
        </mxCell>
        <mxCell id="_nb2k66JtucjqHiSEeKR-131" value="&amp;lt;&amp;lt;extend&amp;gt;&amp;gt;" style="html=1;verticalAlign=bottom;endArrow=open;dashed=1;endSize=8;curved=0;rounded=0;fontSize=12;entryX=1;entryY=1;entryDx=0;entryDy=0;exitX=0.057;exitY=0.182;exitDx=0;exitDy=0;exitPerimeter=0;" edge="1" parent="1" source="_nb2k66JtucjqHiSEeKR-130" target="_nb2k66JtucjqHiSEeKR-118">
          <mxGeometry x="-0.1687" y="3" relative="1" as="geometry">
            <mxPoint x="369" y="347" as="sourcePoint" />
            <mxPoint x="369" y="306" as="targetPoint" />
            <mxPoint as="offset" />
          </mxGeometry>
        </mxCell>
        <mxCell id="_nb2k66JtucjqHiSEeKR-132" value="&lt;font face=&quot;Georgia&quot;&gt;Login&lt;/font&gt;" style="ellipse;whiteSpace=wrap;html=1;" vertex="1" parent="1">
          <mxGeometry x="87" y="126" width="84" height="43" as="geometry" />
        </mxCell>
        <mxCell id="_nb2k66JtucjqHiSEeKR-133" style="edgeStyle=none;curved=1;rounded=0;orthogonalLoop=1;jettySize=auto;html=1;entryX=0;entryY=0.357;entryDx=0;entryDy=0;fontSize=12;startSize=8;endSize=8;endArrow=none;endFill=0;entryPerimeter=0;" edge="1" parent="1" source="_nb2k66JtucjqHiSEeKR-5" target="_nb2k66JtucjqHiSEeKR-132">
          <mxGeometry relative="1" as="geometry">
            <mxPoint x="-66" y="145" as="sourcePoint" />
            <mxPoint x="28" y="223" as="targetPoint" />
          </mxGeometry>
        </mxCell>
        <mxCell id="_nb2k66JtucjqHiSEeKR-136" value="&lt;font face=&quot;Georgia&quot;&gt;Get gifts&lt;/font&gt;" style="ellipse;whiteSpace=wrap;html=1;" vertex="1" parent="1">
          <mxGeometry x="288" y="321" width="86.5" height="48" as="geometry" />
        </mxCell>
        <mxCell id="_nb2k66JtucjqHiSEeKR-138" value="&amp;lt;&amp;lt;extend&amp;gt;&amp;gt;" style="html=1;verticalAlign=bottom;endArrow=open;dashed=1;endSize=8;curved=0;rounded=0;fontSize=12;entryX=0.63;entryY=0.964;entryDx=0;entryDy=0;entryPerimeter=0;" edge="1" parent="1" source="_nb2k66JtucjqHiSEeKR-136" target="_nb2k66JtucjqHiSEeKR-118">
          <mxGeometry x="-0.1687" y="3" relative="1" as="geometry">
            <mxPoint x="396" y="324" as="sourcePoint" />
            <mxPoint x="312" y="294" as="targetPoint" />
            <mxPoint as="offset" />
          </mxGeometry>
        </mxCell>
        <mxCell id="_nb2k66JtucjqHiSEeKR-148" value="&lt;font face=&quot;Georgia&quot;&gt;Create chat&lt;/font&gt;" style="ellipse;whiteSpace=wrap;html=1;" vertex="1" parent="1">
          <mxGeometry x="-266" y="-51.75" width="96" height="54.5" as="geometry" />
        </mxCell>
        <mxCell id="_nb2k66JtucjqHiSEeKR-151" value="&lt;font face=&quot;Georgia&quot;&gt;Create chat&lt;/font&gt;" style="ellipse;whiteSpace=wrap;html=1;" vertex="1" parent="1">
          <mxGeometry x="-408" y="265" width="81" height="43.5" as="geometry" />
        </mxCell>
        <mxCell id="_nb2k66JtucjqHiSEeKR-152" value="&amp;lt;&amp;lt;include&amp;gt;&amp;gt;" style="html=1;verticalAlign=bottom;endArrow=open;dashed=1;endSize=8;curved=0;rounded=0;fontSize=12;" edge="1" parent="1" source="_nb2k66JtucjqHiSEeKR-151" target="_nb2k66JtucjqHiSEeKR-63">
          <mxGeometry x="-0.7239" y="7" relative="1" as="geometry">
            <mxPoint x="-275" y="262" as="sourcePoint" />
            <mxPoint x="-202" y="263" as="targetPoint" />
            <mxPoint x="1" as="offset" />
          </mxGeometry>
        </mxCell>
        <mxCell id="_nb2k66JtucjqHiSEeKR-154" value="&lt;font face=&quot;Georgia&quot;&gt;Buy gifts/&amp;nbsp;&lt;/font&gt;&lt;span style=&quot;font-family: Georgia;&quot;&gt;user /profile /gallery&lt;/span&gt;&lt;font face=&quot;Georgia&quot;&gt;&amp;nbsp;with Friend Coins&lt;/font&gt;" style="ellipse;whiteSpace=wrap;html=1;" vertex="1" parent="1">
          <mxGeometry x="107" y="6" width="120" height="51" as="geometry" />
        </mxCell>
        <mxCell id="_nb2k66JtucjqHiSEeKR-155" value="&lt;font face=&quot;Georgia&quot;&gt;Buy gifts/&amp;nbsp;&lt;/font&gt;&lt;span style=&quot;font-family: Georgia;&quot;&gt;user /profile /gallery&lt;/span&gt;&lt;font face=&quot;Georgia&quot;&gt;&amp;nbsp;with Love Coins&lt;/font&gt;" style="ellipse;whiteSpace=wrap;html=1;" vertex="1" parent="1">
          <mxGeometry x="255.25" y="-120" width="120" height="51" as="geometry" />
        </mxCell>
        <mxCell id="_nb2k66JtucjqHiSEeKR-156" value="&lt;font face=&quot;Georgia&quot;&gt;Buy gifts/&amp;nbsp;&lt;/font&gt;&lt;span style=&quot;font-family: Georgia;&quot;&gt;user /profile /gallery&lt;/span&gt;&lt;font face=&quot;Georgia&quot;&gt;&amp;nbsp;with Any Coins&lt;/font&gt;" style="ellipse;whiteSpace=wrap;html=1;" vertex="1" parent="1">
          <mxGeometry x="132" y="-77" width="120" height="51" as="geometry" />
        </mxCell>
        <mxCell id="_nb2k66JtucjqHiSEeKR-157" value="&lt;font face=&quot;Georgia&quot;&gt;Sell gifts/&amp;nbsp;&lt;/font&gt;&lt;span style=&quot;font-family: Georgia;&quot;&gt;user /profile /gallery&lt;/span&gt;&lt;font face=&quot;Georgia&quot;&gt;&amp;nbsp;with Friend Coins&lt;/font&gt;" style="ellipse;whiteSpace=wrap;html=1;" vertex="1" parent="1">
          <mxGeometry x="375.25" y="-77" width="120" height="51" as="geometry" />
        </mxCell>
        <mxCell id="_nb2k66JtucjqHiSEeKR-158" value="&lt;span style=&quot;font-family: Georgia;&quot;&gt;Sell&lt;/span&gt;&lt;font face=&quot;Georgia&quot;&gt;&amp;nbsp;gifts/&amp;nbsp;&lt;/font&gt;&lt;span style=&quot;font-family: Georgia;&quot;&gt;user /profile /gallery&lt;/span&gt;&lt;font face=&quot;Georgia&quot;&gt;&amp;nbsp;with Any Coins&lt;/font&gt;" style="ellipse;whiteSpace=wrap;html=1;" vertex="1" parent="1">
          <mxGeometry x="411" y="6" width="120" height="51" as="geometry" />
        </mxCell>
        <mxCell id="_nb2k66JtucjqHiSEeKR-159" value="&lt;span style=&quot;font-family: Georgia;&quot;&gt;Sell&lt;/span&gt;&lt;font face=&quot;Georgia&quot;&gt;&amp;nbsp;gifts/&amp;nbsp;&lt;/font&gt;&lt;span style=&quot;font-family: Georgia;&quot;&gt;user /profile /gallery&lt;/span&gt;&lt;font face=&quot;Georgia&quot;&gt;&amp;nbsp;with Love Coins&lt;/font&gt;" style="ellipse;whiteSpace=wrap;html=1;" vertex="1" parent="1">
          <mxGeometry x="374.5" y="82.5" width="120" height="51" as="geometry" />
        </mxCell>
        <mxCell id="_nb2k66JtucjqHiSEeKR-161" value="&amp;lt;&amp;lt;extend&amp;gt;&amp;gt;" style="html=1;verticalAlign=bottom;endArrow=open;dashed=1;endSize=8;curved=0;rounded=0;fontSize=12;exitX=1.015;exitY=0.613;exitDx=0;exitDy=0;exitPerimeter=0;" edge="1" parent="1" source="_nb2k66JtucjqHiSEeKR-154" target="_nb2k66JtucjqHiSEeKR-41">
          <mxGeometry x="0.0479" y="4" relative="1" as="geometry">
            <mxPoint x="318" y="-32" as="sourcePoint" />
            <mxPoint x="318" y="8" as="targetPoint" />
            <mxPoint as="offset" />
          </mxGeometry>
        </mxCell>
        <mxCell id="_nb2k66JtucjqHiSEeKR-162" value="&amp;lt;&amp;lt;extend&amp;gt;&amp;gt;" style="html=1;verticalAlign=bottom;endArrow=open;dashed=1;endSize=8;curved=0;rounded=0;fontSize=12;exitX=1;exitY=1;exitDx=0;exitDy=0;entryX=0;entryY=0;entryDx=0;entryDy=0;" edge="1" parent="1" source="_nb2k66JtucjqHiSEeKR-156" target="_nb2k66JtucjqHiSEeKR-41">
          <mxGeometry x="0.0479" y="4" relative="1" as="geometry">
            <mxPoint x="235" y="32" as="sourcePoint" />
            <mxPoint x="275" y="35" as="targetPoint" />
            <mxPoint as="offset" />
          </mxGeometry>
        </mxCell>
        <mxCell id="_nb2k66JtucjqHiSEeKR-163" value="&amp;lt;&amp;lt;extend&amp;gt;&amp;gt;" style="html=1;verticalAlign=bottom;endArrow=open;dashed=1;endSize=8;curved=0;rounded=0;fontSize=12;exitX=0.5;exitY=1;exitDx=0;exitDy=0;entryX=0.5;entryY=0;entryDx=0;entryDy=0;" edge="1" parent="1" source="_nb2k66JtucjqHiSEeKR-155" target="_nb2k66JtucjqHiSEeKR-41">
          <mxGeometry x="0.0455" relative="1" as="geometry">
            <mxPoint x="308" y="-17" as="sourcePoint" />
            <mxPoint x="348" y="-14" as="targetPoint" />
            <mxPoint as="offset" />
          </mxGeometry>
        </mxCell>
        <mxCell id="_nb2k66JtucjqHiSEeKR-164" value="&amp;lt;&amp;lt;extend&amp;gt;&amp;gt;" style="html=1;verticalAlign=bottom;endArrow=open;dashed=1;endSize=8;curved=0;rounded=0;fontSize=12;exitX=0;exitY=1;exitDx=0;exitDy=0;" edge="1" parent="1" source="_nb2k66JtucjqHiSEeKR-157" target="_nb2k66JtucjqHiSEeKR-41">
          <mxGeometry x="0.0479" y="4" relative="1" as="geometry">
            <mxPoint x="378" y="1" as="sourcePoint" />
            <mxPoint x="418" y="4" as="targetPoint" />
            <mxPoint as="offset" />
          </mxGeometry>
        </mxCell>
        <mxCell id="_nb2k66JtucjqHiSEeKR-165" value="&amp;lt;&amp;lt;extend&amp;gt;&amp;gt;" style="html=1;verticalAlign=bottom;endArrow=open;dashed=1;endSize=8;curved=0;rounded=0;fontSize=12;entryX=1;entryY=0.5;entryDx=0;entryDy=0;" edge="1" parent="1" source="_nb2k66JtucjqHiSEeKR-158" target="_nb2k66JtucjqHiSEeKR-41">
          <mxGeometry x="-0.0507" y="1" relative="1" as="geometry">
            <mxPoint x="375" y="29" as="sourcePoint" />
            <mxPoint x="415" y="32" as="targetPoint" />
            <mxPoint as="offset" />
          </mxGeometry>
        </mxCell>
        <mxCell id="_nb2k66JtucjqHiSEeKR-166" value="&amp;lt;&amp;lt;extend&amp;gt;&amp;gt;" style="html=1;verticalAlign=bottom;endArrow=open;dashed=1;endSize=8;curved=0;rounded=0;fontSize=12;" edge="1" parent="1" source="_nb2k66JtucjqHiSEeKR-159" target="_nb2k66JtucjqHiSEeKR-41">
          <mxGeometry x="-0.1958" y="9" relative="1" as="geometry">
            <mxPoint x="356" y="80" as="sourcePoint" />
            <mxPoint x="396" y="83" as="targetPoint" />
            <mxPoint as="offset" />
          </mxGeometry>
        </mxCell>
      </root>
    </mxGraphModel>
  </diagram>
</mxfile>
